<svg width="16" height="16" viewBox="0 0 16 16" fill="none" xmlns="http://www.w3.org/2000/svg">
<path d="M13.36 3.31005C13.36 2.94002 13.0601 2.64005 12.69 2.64005L3.31005 2.64005C2.94002 2.64005 2.64005 2.94002 2.64005 3.31005L2.64005 12.69C2.64005 13.0601 2.94002 13.36 3.31005 13.36L12.69 13.36C13.0601 13.36 13.36 13.0601 13.36 12.69L13.36 3.31005ZM14.7 12.69C14.7 13.8002 13.8002 14.7 12.69 14.7L3.31005 14.7C2.19996 14.7 1.30005 13.8002 1.30005 12.69L1.30005 3.31005C1.30005 2.19996 2.19996 1.30005 3.31005 1.30005L12.69 1.30005C13.8002 1.30005 14.7 2.19996 14.7 3.31005L14.7 12.69Z" fill="#6B7280"/>
<path d="M14.03 5.33008C14.4001 5.33008 14.7 5.63005 14.7 6.00008C14.7 6.37011 14.4001 6.67008 14.03 6.67008L1.97005 6.67008C1.60002 6.67008 1.30005 6.37011 1.30005 6.00008C1.30005 5.63005 1.60002 5.33008 1.97005 5.33008L14.03 5.33008Z" fill="#6B7280"/>
<path d="M14.03 9.33008C14.4001 9.33008 14.7 9.63004 14.7 10.0001C14.7 10.3701 14.4001 10.6701 14.03 10.6701L1.97005 10.6701C1.60002 10.6701 1.30005 10.3701 1.30005 10.0001C1.30005 9.63004 1.60002 9.33008 1.97005 9.33008L14.03 9.33008Z" fill="#6B7280"/>
<path d="M5.33008 14.03L5.33008 1.97005C5.33008 1.60002 5.63005 1.30005 6.00008 1.30005C6.37011 1.30005 6.67008 1.60002 6.67008 1.97005L6.67008 14.03C6.67008 14.4001 6.37011 14.7 6.00008 14.7C5.63005 14.7 5.33008 14.4001 5.33008 14.03Z" fill="#6B7280"/>
<path d="M9.33008 14.03L9.33008 1.97005C9.33008 1.60002 9.63004 1.30005 10.0001 1.30005C10.3701 1.30005 10.6701 1.60002 10.6701 1.97005L10.6701 14.03C10.6701 14.4001 10.3701 14.7 10.0001 14.7C9.63004 14.7 9.33008 14.4001 9.33008 14.03Z" fill="#6B7280"/>
</svg>
