<svg width="16" height="16" viewBox="0 0 16 16" fill="none" xmlns="http://www.w3.org/2000/svg">
<path d="M1.30005 12.6701L1.30005 9.99007C1.30005 9.62003 1.60002 9.32007 1.97005 9.32007C2.34008 9.32007 2.64005 9.62003 2.64005 9.99007L2.64005 12.6701L2.64332 12.7361C2.65852 12.8896 2.72636 13.0338 2.83634 13.1438C2.96199 13.2695 3.13235 13.3401 3.31005 13.3401L12.69 13.3401C12.8677 13.3401 13.0381 13.2695 13.1637 13.1438C13.2894 13.0181 13.36 12.8478 13.36 12.6701L13.36 9.99007C13.36 9.62003 13.66 9.32007 14.03 9.32007C14.4001 9.32007 14.7 9.62003 14.7 9.99007L14.7 12.6701C14.7 13.2032 14.4881 13.7143 14.1112 14.0912C13.7342 14.4681 13.2232 14.6801 12.69 14.6801L3.31005 14.6801C2.77696 14.6801 2.26587 14.4681 1.88892 14.0912C1.55914 13.7614 1.3556 13.329 1.30986 12.869L1.30005 12.6701Z" fill="#6B7280"/>
<path d="M10.9274 6.13544C11.1905 5.9208 11.5785 5.93594 11.8238 6.18124C12.069 6.42653 12.0842 6.81447 11.8696 7.07765L11.8238 7.12863L8.47376 10.4786C8.21212 10.7403 7.78801 10.7403 7.52638 10.4786L4.17636 7.12863L4.13056 7.07765C3.91592 6.81447 3.93106 6.42653 4.17636 6.18124C4.42166 5.93594 4.80959 5.9208 5.07274 6.13544L5.12378 6.18124L8.00007 9.0575L10.8764 6.18124L10.9274 6.13544Z" fill="#6B7280"/>
<path d="M7.33008 10.0201L7.33008 1.98006C7.33008 1.61003 7.63004 1.31006 8.00008 1.31006C8.37012 1.31006 8.67008 1.61003 8.67008 1.98006L8.67008 10.0201C8.67008 10.3901 8.37012 10.6901 8.00008 10.6901C7.63004 10.6901 7.33008 10.3901 7.33008 10.0201Z" fill="#6B7280"/>
</svg>
